<mxfile host="app.diagrams.net" modified="2023-08-05T20:27:17.702Z" agent="Mozilla/5.0 (Windows NT 10.0; Win64; x64) AppleWebKit/537.36 (KHTML, like Gecko) Chrome/115.0.0.0 Safari/537.36 Edg/115.0.1901.188" etag="myDO44eeR0aZ8yf5Beo8" version="21.3.7" type="device">
  <diagram name="Page-1" id="x0hf_PfrwfYbK5UQEEMM">
    <mxGraphModel dx="648" dy="448" grid="1" gridSize="10" guides="1" tooltips="1" connect="1" arrows="1" fold="1" page="1" pageScale="1" pageWidth="850" pageHeight="1100" math="0" shadow="0">
      <root>
        <mxCell id="0" />
        <mxCell id="1" parent="0" />
        <mxCell id="Yu1UeEqG6iT7txKs1d1v-2" value="Battery&lt;br&gt;25.2V" style="rounded=0;whiteSpace=wrap;html=1;" vertex="1" parent="1">
          <mxGeometry x="200" y="40" width="160" height="80" as="geometry" />
        </mxCell>
        <mxCell id="Yu1UeEqG6iT7txKs1d1v-5" value="Wheel" style="ellipse;whiteSpace=wrap;html=1;" vertex="1" parent="1">
          <mxGeometry x="90" y="160" width="60" height="140" as="geometry" />
        </mxCell>
        <mxCell id="Yu1UeEqG6iT7txKs1d1v-6" value="Wheel" style="ellipse;whiteSpace=wrap;html=1;" vertex="1" parent="1">
          <mxGeometry x="520" y="160" width="60" height="140" as="geometry" />
        </mxCell>
        <mxCell id="Yu1UeEqG6iT7txKs1d1v-8" value="" style="triangle;whiteSpace=wrap;html=1;fillColor=#a20025;fontColor=#ffffff;strokeColor=#6F0000;" vertex="1" parent="1">
          <mxGeometry x="580" y="212.5" width="20" height="35" as="geometry" />
        </mxCell>
        <mxCell id="Yu1UeEqG6iT7txKs1d1v-9" value="" style="triangle;whiteSpace=wrap;html=1;rotation=-180;" vertex="1" parent="1">
          <mxGeometry x="70" y="212.5" width="20" height="35" as="geometry" />
        </mxCell>
        <mxCell id="Yu1UeEqG6iT7txKs1d1v-10" value="" style="endArrow=none;html=1;rounded=0;entryX=0.25;entryY=1;entryDx=0;entryDy=0;strokeWidth=3;fillColor=#0050ef;strokeColor=#001DBC;" edge="1" parent="1" target="Yu1UeEqG6iT7txKs1d1v-2">
          <mxGeometry width="50" height="50" relative="1" as="geometry">
            <mxPoint x="240" y="230" as="sourcePoint" />
            <mxPoint x="450" y="330" as="targetPoint" />
          </mxGeometry>
        </mxCell>
        <mxCell id="Yu1UeEqG6iT7txKs1d1v-11" value="" style="endArrow=none;html=1;rounded=0;exitX=1;exitY=0.5;exitDx=0;exitDy=0;strokeWidth=3;fillColor=#0050ef;strokeColor=#001DBC;" edge="1" parent="1" source="Yu1UeEqG6iT7txKs1d1v-5">
          <mxGeometry width="50" height="50" relative="1" as="geometry">
            <mxPoint x="400" y="380" as="sourcePoint" />
            <mxPoint x="240" y="230" as="targetPoint" />
          </mxGeometry>
        </mxCell>
        <mxCell id="Yu1UeEqG6iT7txKs1d1v-12" value="" style="endArrow=none;html=1;rounded=0;entryX=0.75;entryY=1;entryDx=0;entryDy=0;fillColor=#a20025;strokeColor=#6F0000;strokeWidth=3;" edge="1" parent="1" target="Yu1UeEqG6iT7txKs1d1v-2">
          <mxGeometry width="50" height="50" relative="1" as="geometry">
            <mxPoint x="320" y="160" as="sourcePoint" />
            <mxPoint x="330" y="130" as="targetPoint" />
          </mxGeometry>
        </mxCell>
        <mxCell id="Yu1UeEqG6iT7txKs1d1v-13" value="" style="endArrow=none;html=1;rounded=0;entryX=0;entryY=0.5;entryDx=0;entryDy=0;fillColor=#a20025;strokeColor=#6F0000;strokeWidth=3;" edge="1" parent="1" target="Yu1UeEqG6iT7txKs1d1v-6">
          <mxGeometry width="50" height="50" relative="1" as="geometry">
            <mxPoint x="460" y="230" as="sourcePoint" />
            <mxPoint x="450" y="330" as="targetPoint" />
          </mxGeometry>
        </mxCell>
        <mxCell id="Yu1UeEqG6iT7txKs1d1v-14" value="On/off Switch" style="rounded=0;whiteSpace=wrap;html=1;" vertex="1" parent="1">
          <mxGeometry x="400" y="80" width="120" height="40" as="geometry" />
        </mxCell>
        <mxCell id="Yu1UeEqG6iT7txKs1d1v-15" value="" style="endArrow=none;html=1;rounded=0;fillColor=#a20025;strokeColor=#6F0000;strokeWidth=3;" edge="1" parent="1">
          <mxGeometry width="50" height="50" relative="1" as="geometry">
            <mxPoint x="320" y="159" as="sourcePoint" />
            <mxPoint x="440" y="159" as="targetPoint" />
          </mxGeometry>
        </mxCell>
        <mxCell id="Yu1UeEqG6iT7txKs1d1v-16" value="" style="endArrow=none;html=1;rounded=0;entryX=0.322;entryY=1.025;entryDx=0;entryDy=0;entryPerimeter=0;fillColor=#a20025;strokeColor=#6F0000;strokeWidth=3;" edge="1" parent="1" target="Yu1UeEqG6iT7txKs1d1v-14">
          <mxGeometry width="50" height="50" relative="1" as="geometry">
            <mxPoint x="439" y="160" as="sourcePoint" />
            <mxPoint x="440" y="140" as="targetPoint" />
          </mxGeometry>
        </mxCell>
        <mxCell id="Yu1UeEqG6iT7txKs1d1v-17" value="" style="endArrow=none;html=1;rounded=0;fillColor=#a20025;strokeColor=#6F0000;strokeWidth=3;" edge="1" parent="1">
          <mxGeometry width="50" height="50" relative="1" as="geometry">
            <mxPoint x="460" y="230" as="sourcePoint" />
            <mxPoint x="460" y="120" as="targetPoint" />
          </mxGeometry>
        </mxCell>
        <mxCell id="Yu1UeEqG6iT7txKs1d1v-19" value="" style="endArrow=none;html=1;rounded=0;fillColor=#0050ef;strokeColor=#001DBC;strokeWidth=3;" edge="1" parent="1" source="Yu1UeEqG6iT7txKs1d1v-3">
          <mxGeometry width="50" height="50" relative="1" as="geometry">
            <mxPoint x="380" y="350" as="sourcePoint" />
            <mxPoint x="240" y="230" as="targetPoint" />
          </mxGeometry>
        </mxCell>
        <mxCell id="Yu1UeEqG6iT7txKs1d1v-20" value="" style="endArrow=none;html=1;rounded=0;exitX=0.56;exitY=-0.013;exitDx=0;exitDy=0;exitPerimeter=0;fillColor=#a20025;strokeColor=#6F0000;strokeWidth=3;" edge="1" parent="1" source="Yu1UeEqG6iT7txKs1d1v-3">
          <mxGeometry width="50" height="50" relative="1" as="geometry">
            <mxPoint x="380" y="350" as="sourcePoint" />
            <mxPoint x="250" y="230" as="targetPoint" />
          </mxGeometry>
        </mxCell>
        <mxCell id="Yu1UeEqG6iT7txKs1d1v-21" value="" style="endArrow=none;html=1;rounded=0;fillColor=#a20025;strokeColor=#6F0000;strokeWidth=3;" edge="1" parent="1">
          <mxGeometry width="50" height="50" relative="1" as="geometry">
            <mxPoint x="250" y="229.5" as="sourcePoint" />
            <mxPoint x="460" y="229.5" as="targetPoint" />
          </mxGeometry>
        </mxCell>
        <mxCell id="Yu1UeEqG6iT7txKs1d1v-25" value="" style="endArrow=none;html=1;rounded=0;fillColor=#a20025;strokeColor=#6F0000;strokeWidth=3;" edge="1" parent="1">
          <mxGeometry width="50" height="50" relative="1" as="geometry">
            <mxPoint x="250" y="480" as="sourcePoint" />
            <mxPoint x="600" y="480" as="targetPoint" />
          </mxGeometry>
        </mxCell>
        <mxCell id="Yu1UeEqG6iT7txKs1d1v-26" value="" style="endArrow=none;html=1;rounded=0;fillColor=#0050ef;strokeColor=#001DBC;strokeWidth=3;" edge="1" parent="1">
          <mxGeometry width="50" height="50" relative="1" as="geometry">
            <mxPoint x="240" y="490" as="sourcePoint" />
            <mxPoint x="590" y="490" as="targetPoint" />
          </mxGeometry>
        </mxCell>
        <mxCell id="Yu1UeEqG6iT7txKs1d1v-27" value="" style="endArrow=none;html=1;rounded=0;exitX=0.583;exitY=0.008;exitDx=0;exitDy=0;exitPerimeter=0;fillColor=#0050ef;strokeColor=#001DBC;strokeWidth=3;" edge="1" parent="1" source="Yu1UeEqG6iT7txKs1d1v-23">
          <mxGeometry width="50" height="50" relative="1" as="geometry">
            <mxPoint x="380" y="350" as="sourcePoint" />
            <mxPoint x="590" y="490" as="targetPoint" />
          </mxGeometry>
        </mxCell>
        <mxCell id="Yu1UeEqG6iT7txKs1d1v-28" value="" style="endArrow=none;html=1;rounded=0;fillColor=#a20025;strokeColor=#6F0000;strokeWidth=3;" edge="1" parent="1">
          <mxGeometry width="50" height="50" relative="1" as="geometry">
            <mxPoint x="600" y="520" as="sourcePoint" />
            <mxPoint x="600" y="480" as="targetPoint" />
          </mxGeometry>
        </mxCell>
        <mxCell id="Yu1UeEqG6iT7txKs1d1v-29" value="" style="endArrow=none;html=1;rounded=0;exitX=0.583;exitY=0.008;exitDx=0;exitDy=0;exitPerimeter=0;fillColor=#0050ef;strokeColor=#001DBC;strokeWidth=3;" edge="1" parent="1">
          <mxGeometry width="50" height="50" relative="1" as="geometry">
            <mxPoint x="370" y="520" as="sourcePoint" />
            <mxPoint x="370" y="489" as="targetPoint" />
          </mxGeometry>
        </mxCell>
        <mxCell id="Yu1UeEqG6iT7txKs1d1v-30" value="" style="endArrow=none;html=1;rounded=0;fillColor=#a20025;strokeColor=#6F0000;strokeWidth=3;" edge="1" parent="1">
          <mxGeometry width="50" height="50" relative="1" as="geometry">
            <mxPoint x="380" y="519" as="sourcePoint" />
            <mxPoint x="380" y="479" as="targetPoint" />
          </mxGeometry>
        </mxCell>
        <mxCell id="Yu1UeEqG6iT7txKs1d1v-32" value="" style="endArrow=none;html=1;rounded=0;fillColor=#a20025;strokeColor=#6F0000;strokeWidth=3;" edge="1" parent="1">
          <mxGeometry width="50" height="50" relative="1" as="geometry">
            <mxPoint x="250" y="280" as="sourcePoint" />
            <mxPoint x="350" y="279" as="targetPoint" />
          </mxGeometry>
        </mxCell>
        <mxCell id="Yu1UeEqG6iT7txKs1d1v-33" value="" style="endArrow=none;html=1;rounded=0;fillColor=#0050ef;strokeColor=#001DBC;strokeWidth=3;" edge="1" parent="1">
          <mxGeometry width="50" height="50" relative="1" as="geometry">
            <mxPoint x="240" y="289" as="sourcePoint" />
            <mxPoint x="340" y="289" as="targetPoint" />
          </mxGeometry>
        </mxCell>
        <mxCell id="Yu1UeEqG6iT7txKs1d1v-34" value="" style="endArrow=none;html=1;rounded=0;exitX=0.583;exitY=0.008;exitDx=0;exitDy=0;exitPerimeter=0;fillColor=#0050ef;strokeColor=#001DBC;strokeWidth=3;" edge="1" parent="1">
          <mxGeometry width="50" height="50" relative="1" as="geometry">
            <mxPoint x="340" y="320" as="sourcePoint" />
            <mxPoint x="340" y="289" as="targetPoint" />
          </mxGeometry>
        </mxCell>
        <mxCell id="Yu1UeEqG6iT7txKs1d1v-35" value="" style="endArrow=none;html=1;rounded=0;fillColor=#a20025;strokeColor=#6F0000;strokeWidth=3;" edge="1" parent="1">
          <mxGeometry width="50" height="50" relative="1" as="geometry">
            <mxPoint x="350" y="319" as="sourcePoint" />
            <mxPoint x="350" y="279" as="targetPoint" />
          </mxGeometry>
        </mxCell>
        <mxCell id="Yu1UeEqG6iT7txKs1d1v-36" value="" style="endArrow=none;html=1;rounded=0;fillColor=#a20025;strokeColor=#6F0000;strokeWidth=1;" edge="1" parent="1">
          <mxGeometry width="50" height="50" relative="1" as="geometry">
            <mxPoint x="400" y="340" as="sourcePoint" />
            <mxPoint x="440" y="340" as="targetPoint" />
          </mxGeometry>
        </mxCell>
        <mxCell id="Yu1UeEqG6iT7txKs1d1v-37" value="" style="endArrow=none;html=1;rounded=0;fillColor=#0050ef;strokeColor=#001DBC;strokeWidth=1;" edge="1" parent="1">
          <mxGeometry width="50" height="50" relative="1" as="geometry">
            <mxPoint x="400" y="350" as="sourcePoint" />
            <mxPoint x="441" y="350" as="targetPoint" />
          </mxGeometry>
        </mxCell>
        <mxCell id="Yu1UeEqG6iT7txKs1d1v-38" value="" style="endArrow=none;html=1;rounded=0;fillColor=#a20025;strokeColor=#6F0000;strokeWidth=1;" edge="1" parent="1">
          <mxGeometry width="50" height="50" relative="1" as="geometry">
            <mxPoint x="270" y="460" as="sourcePoint" />
            <mxPoint x="620" y="460" as="targetPoint" />
          </mxGeometry>
        </mxCell>
        <mxCell id="Yu1UeEqG6iT7txKs1d1v-39" value="" style="endArrow=none;html=1;rounded=0;fillColor=#0050ef;strokeColor=#001DBC;strokeWidth=1;" edge="1" parent="1">
          <mxGeometry width="50" height="50" relative="1" as="geometry">
            <mxPoint x="280" y="470" as="sourcePoint" />
            <mxPoint x="610" y="470" as="targetPoint" />
          </mxGeometry>
        </mxCell>
        <mxCell id="Yu1UeEqG6iT7txKs1d1v-40" value="" style="endArrow=none;html=1;rounded=0;exitX=0.583;exitY=0.008;exitDx=0;exitDy=0;exitPerimeter=0;fillColor=#0050ef;strokeColor=#001DBC;strokeWidth=1;" edge="1" parent="1">
          <mxGeometry width="50" height="50" relative="1" as="geometry">
            <mxPoint x="414" y="480" as="sourcePoint" />
            <mxPoint x="414" y="350" as="targetPoint" />
          </mxGeometry>
        </mxCell>
        <mxCell id="Yu1UeEqG6iT7txKs1d1v-41" value="" style="endArrow=none;html=1;rounded=0;fillColor=#a20025;strokeColor=#6F0000;strokeWidth=1;" edge="1" parent="1">
          <mxGeometry width="50" height="50" relative="1" as="geometry">
            <mxPoint x="424" y="479" as="sourcePoint" />
            <mxPoint x="424" y="340" as="targetPoint" />
          </mxGeometry>
        </mxCell>
        <mxCell id="Yu1UeEqG6iT7txKs1d1v-42" value="" style="endArrow=none;html=1;rounded=0;exitX=0.583;exitY=0.008;exitDx=0;exitDy=0;exitPerimeter=0;fillColor=#0050ef;strokeColor=#001DBC;strokeWidth=1;" edge="1" parent="1">
          <mxGeometry width="50" height="50" relative="1" as="geometry">
            <mxPoint x="609.39" y="520" as="sourcePoint" />
            <mxPoint x="610" y="470" as="targetPoint" />
          </mxGeometry>
        </mxCell>
        <mxCell id="Yu1UeEqG6iT7txKs1d1v-43" value="" style="endArrow=none;html=1;rounded=0;fillColor=#a20025;strokeColor=#6F0000;strokeWidth=1;" edge="1" parent="1">
          <mxGeometry width="50" height="50" relative="1" as="geometry">
            <mxPoint x="620" y="519" as="sourcePoint" />
            <mxPoint x="620" y="460" as="targetPoint" />
          </mxGeometry>
        </mxCell>
        <mxCell id="Yu1UeEqG6iT7txKs1d1v-44" value="" style="endArrow=none;html=1;rounded=0;exitX=0.583;exitY=0.008;exitDx=0;exitDy=0;exitPerimeter=0;fillColor=#0050ef;strokeColor=#001DBC;strokeWidth=1;" edge="1" parent="1">
          <mxGeometry width="50" height="50" relative="1" as="geometry">
            <mxPoint x="280" y="520" as="sourcePoint" />
            <mxPoint x="280.61" y="470" as="targetPoint" />
          </mxGeometry>
        </mxCell>
        <mxCell id="Yu1UeEqG6iT7txKs1d1v-45" value="" style="endArrow=none;html=1;rounded=0;fillColor=#a20025;strokeColor=#6F0000;strokeWidth=1;" edge="1" parent="1">
          <mxGeometry width="50" height="50" relative="1" as="geometry">
            <mxPoint x="270" y="520" as="sourcePoint" />
            <mxPoint x="270" y="461" as="targetPoint" />
          </mxGeometry>
        </mxCell>
        <mxCell id="Yu1UeEqG6iT7txKs1d1v-3" value="IBT_2&lt;br&gt;Lawn mower blade motor driver" style="rounded=0;whiteSpace=wrap;html=1;" vertex="1" parent="1">
          <mxGeometry x="160" y="520" width="160" height="80" as="geometry" />
        </mxCell>
        <mxCell id="Yu1UeEqG6iT7txKs1d1v-22" value="DRV8871&lt;br&gt;Motor driver left" style="rounded=0;whiteSpace=wrap;html=1;" vertex="1" parent="1">
          <mxGeometry x="360" y="520" width="120" height="80" as="geometry" />
        </mxCell>
        <mxCell id="Yu1UeEqG6iT7txKs1d1v-23" value="DRV8871&lt;br&gt;Motor driver right" style="rounded=0;whiteSpace=wrap;html=1;" vertex="1" parent="1">
          <mxGeometry x="520" y="520" width="120" height="80" as="geometry" />
        </mxCell>
        <mxCell id="Yu1UeEqG6iT7txKs1d1v-24" value="Voltage regulator&lt;br&gt;5v" style="rounded=0;whiteSpace=wrap;html=1;" vertex="1" parent="1">
          <mxGeometry x="280" y="320" width="120" height="80" as="geometry" />
        </mxCell>
        <mxCell id="Yu1UeEqG6iT7txKs1d1v-31" value="Arduino Leonardo" style="rounded=0;whiteSpace=wrap;html=1;" vertex="1" parent="1">
          <mxGeometry x="440" y="320" width="140" height="80" as="geometry" />
        </mxCell>
        <mxCell id="Yu1UeEqG6iT7txKs1d1v-47" value="Front&lt;br&gt;switches&lt;br&gt;connector" style="rounded=0;whiteSpace=wrap;html=1;" vertex="1" parent="1">
          <mxGeometry x="720" y="200" width="80" height="160" as="geometry" />
        </mxCell>
        <mxCell id="Yu1UeEqG6iT7txKs1d1v-48" value="" style="endArrow=none;html=1;rounded=0;entryX=0;entryY=0.5;entryDx=0;entryDy=0;exitX=1;exitY=0.5;exitDx=0;exitDy=0;fillColor=#60a917;strokeColor=#2D7600;strokeWidth=8;" edge="1" parent="1">
          <mxGeometry width="50" height="50" relative="1" as="geometry">
            <mxPoint x="580" y="332" as="sourcePoint" />
            <mxPoint x="720" y="332" as="targetPoint" />
          </mxGeometry>
        </mxCell>
        <mxCell id="Yu1UeEqG6iT7txKs1d1v-50" value="" style="endArrow=none;html=1;rounded=0;exitX=0.25;exitY=0;exitDx=0;exitDy=0;fillColor=#60a917;strokeColor=#2D7600;strokeWidth=8;entryX=0.795;entryY=0.999;entryDx=0;entryDy=0;entryPerimeter=0;" edge="1" parent="1" source="Yu1UeEqG6iT7txKs1d1v-23" target="Yu1UeEqG6iT7txKs1d1v-31">
          <mxGeometry width="50" height="50" relative="1" as="geometry">
            <mxPoint x="550" y="530" as="sourcePoint" />
            <mxPoint x="550" y="440" as="targetPoint" />
          </mxGeometry>
        </mxCell>
        <mxCell id="Yu1UeEqG6iT7txKs1d1v-51" value="" style="endArrow=none;html=1;rounded=0;exitX=0.25;exitY=0;exitDx=0;exitDy=0;fillColor=#60a917;strokeColor=#2D7600;strokeWidth=8;entryX=0.795;entryY=0.999;entryDx=0;entryDy=0;entryPerimeter=0;" edge="1" parent="1">
          <mxGeometry width="50" height="50" relative="1" as="geometry">
            <mxPoint x="470" y="520" as="sourcePoint" />
            <mxPoint x="471" y="400" as="targetPoint" />
          </mxGeometry>
        </mxCell>
        <mxCell id="Yu1UeEqG6iT7txKs1d1v-52" value="" style="endArrow=none;html=1;rounded=0;exitX=0.25;exitY=0;exitDx=0;exitDy=0;fillColor=#60a917;strokeColor=#2D7600;strokeWidth=8;" edge="1" parent="1">
          <mxGeometry width="50" height="50" relative="1" as="geometry">
            <mxPoint x="300" y="520" as="sourcePoint" />
            <mxPoint x="301" y="440" as="targetPoint" />
          </mxGeometry>
        </mxCell>
        <mxCell id="Yu1UeEqG6iT7txKs1d1v-53" value="" style="endArrow=none;html=1;rounded=0;fillColor=#60a917;strokeColor=#2D7600;strokeWidth=8;" edge="1" parent="1">
          <mxGeometry width="50" height="50" relative="1" as="geometry">
            <mxPoint x="451" y="440" as="sourcePoint" />
            <mxPoint x="451" y="400" as="targetPoint" />
          </mxGeometry>
        </mxCell>
        <mxCell id="Yu1UeEqG6iT7txKs1d1v-54" value="" style="endArrow=none;html=1;rounded=0;fillColor=#60a917;strokeColor=#2D7600;strokeWidth=8;" edge="1" parent="1">
          <mxGeometry width="50" height="50" relative="1" as="geometry">
            <mxPoint x="450" y="440" as="sourcePoint" />
            <mxPoint x="300" y="440" as="targetPoint" />
          </mxGeometry>
        </mxCell>
        <mxCell id="Yu1UeEqG6iT7txKs1d1v-55" value="Battery charger &lt;br&gt;connector" style="text;html=1;align=left;verticalAlign=middle;resizable=0;points=[];autosize=1;strokeColor=none;fillColor=none;" vertex="1" parent="1">
          <mxGeometry x="600" y="190" width="110" height="40" as="geometry" />
        </mxCell>
        <mxCell id="Yu1UeEqG6iT7txKs1d1v-56" value="Battery charger &lt;br&gt;connector" style="text;html=1;align=left;verticalAlign=middle;resizable=0;points=[];autosize=1;strokeColor=none;fillColor=none;" vertex="1" parent="1">
          <mxGeometry x="3" y="193" width="110" height="40" as="geometry" />
        </mxCell>
        <mxCell id="Yu1UeEqG6iT7txKs1d1v-57" value="Carson&lt;br&gt;14 Channel&lt;br&gt;Receiver" style="rounded=0;whiteSpace=wrap;html=1;" vertex="1" parent="1">
          <mxGeometry x="680" y="380" width="80" height="160" as="geometry" />
        </mxCell>
        <mxCell id="Yu1UeEqG6iT7txKs1d1v-58" value="" style="endArrow=none;html=1;rounded=0;exitX=1;exitY=0.5;exitDx=0;exitDy=0;fillColor=#60a917;strokeColor=#2D7600;strokeWidth=8;" edge="1" parent="1">
          <mxGeometry width="50" height="50" relative="1" as="geometry">
            <mxPoint x="580" y="390" as="sourcePoint" />
            <mxPoint x="680" y="390" as="targetPoint" />
          </mxGeometry>
        </mxCell>
        <mxCell id="Yu1UeEqG6iT7txKs1d1v-59" value="" style="endArrow=none;html=1;rounded=0;entryX=-0.016;entryY=0.567;entryDx=0;entryDy=0;entryPerimeter=0;fillColor=#0050ef;strokeColor=#001DBC;" edge="1" parent="1" target="Yu1UeEqG6iT7txKs1d1v-57">
          <mxGeometry width="50" height="50" relative="1" as="geometry">
            <mxPoint x="610" y="470" as="sourcePoint" />
            <mxPoint x="680" y="410" as="targetPoint" />
          </mxGeometry>
        </mxCell>
        <mxCell id="Yu1UeEqG6iT7txKs1d1v-60" value="" style="endArrow=none;html=1;rounded=0;entryX=-0.016;entryY=0.567;entryDx=0;entryDy=0;entryPerimeter=0;fillColor=#a20025;strokeColor=#6F0000;" edge="1" parent="1">
          <mxGeometry width="50" height="50" relative="1" as="geometry">
            <mxPoint x="611" y="459.5" as="sourcePoint" />
            <mxPoint x="680" y="460.5" as="targetPoint" />
          </mxGeometry>
        </mxCell>
        <mxCell id="Yu1UeEqG6iT7txKs1d1v-61" value="" style="endArrow=ERmany;html=1;rounded=0;endFill=0;" edge="1" parent="1">
          <mxGeometry width="50" height="50" relative="1" as="geometry">
            <mxPoint x="800" y="460" as="sourcePoint" />
            <mxPoint x="800" y="400" as="targetPoint" />
          </mxGeometry>
        </mxCell>
        <mxCell id="Yu1UeEqG6iT7txKs1d1v-62" value="" style="endArrow=none;html=1;rounded=0;exitX=1;exitY=0.5;exitDx=0;exitDy=0;" edge="1" parent="1" source="Yu1UeEqG6iT7txKs1d1v-57">
          <mxGeometry width="50" height="50" relative="1" as="geometry">
            <mxPoint x="770" y="520" as="sourcePoint" />
            <mxPoint x="800" y="460" as="targetPoint" />
          </mxGeometry>
        </mxCell>
        <mxCell id="Yu1UeEqG6iT7txKs1d1v-63" value="Antenna" style="text;html=1;strokeColor=none;fillColor=none;align=center;verticalAlign=middle;whiteSpace=wrap;rounded=0;" vertex="1" parent="1">
          <mxGeometry x="760" y="460" width="60" height="30" as="geometry" />
        </mxCell>
      </root>
    </mxGraphModel>
  </diagram>
</mxfile>
